<?xml version="1.0" standalone="no"?>
<!DOCTYPE svg PUBLIC "-//W3C//DTD SVG 20010904//EN"
 "http://www.w3.org/TR/2001/REC-SVG-20010904/DTD/svg10.dtd">
<svg version="1.0" xmlns="http://www.w3.org/2000/svg"
 width="700.000000pt" height="467.000000pt" viewBox="0 0 700.000000 467.000000"
 preserveAspectRatio="xMidYMid meet">

<g transform="translate(0.000000,467.000000) scale(0.100000,-0.100000)"
fill="#000000" stroke="none">
<path d="M0 2335 l0 -2335 3500 0 3500 0 0 2335 0 2335 -3500 0 -3500 0 0
-2335z m3387 1403 l-6 -23 16 23 c14 19 43 31 43 17 0 -14 -103 -175 -111
-175 -5 0 -9 8 -9 18 0 14 -2 15 -10 2 -5 -8 -12 -12 -15 -8 -11 10 67 168 83
168 10 0 13 -7 9 -22z m91 -10 c-8 -13 -32 -51 -53 -85 -21 -35 -44 -63 -51
-63 -19 0 -18 7 12 59 49 86 69 111 88 111 17 0 17 -2 4 -22z m62 4 c0 -4 -6
-14 -12 -21 -7 -8 -1 -6 13 3 24 15 33 15 80 3 34 -8 54 -19 54 -28 0 -9 -9
-13 -27 -11 -37 4 -59 -33 -25 -42 17 -4 19 -8 9 -18 -7 -7 -24 -12 -39 -13
-18 0 -29 -6 -31 -17 -2 -13 3 -18 17 -18 22 0 28 -14 10 -26 -6 -3 -37 -1
-70 6 -49 11 -59 16 -59 34 -1 20 -2 20 -14 4 -12 -17 -46 -25 -46 -12 0 3 23
41 51 85 34 53 57 79 70 79 10 0 19 -4 19 -8z m1200 -287 c0 -32 -46 -171 -94
-288 -20 -48 -44 -118 -55 -155 -10 -37 -30 -93 -45 -126 -14 -32 -26 -65 -26
-73 0 -16 -49 -133 -100 -238 -16 -33 -45 -103 -65 -155 -81 -215 -148 -318
-219 -336 -70 -17 -159 35 -214 126 -61 102 -118 330 -82 330 6 0 24 -22 41
-50 38 -62 78 -91 133 -97 73 -9 130 37 209 167 19 30 58 93 87 140 56 89 125
213 161 290 80 172 248 490 260 490 5 0 9 -11 9 -25z m785 -395 c56 -160 9
-367 -107 -483 -21 -21 -38 -42 -38 -47 0 -5 -35 -43 -77 -85 -66 -66 -78 -74
-84 -58 -7 17 -8 17 -8 -2 -1 -11 -8 -30 -16 -42 -26 -37 -225 -204 -235 -198
-6 3 -10 0 -10 -8 0 -12 -127 -140 -222 -224 l-36 -31 -18 39 c-9 22 -22 42
-27 46 -5 3 -2 -9 7 -25 17 -32 22 -88 9 -94 -10 -4 -124 -144 -148 -181 l-19
-29 -17 34 -17 33 5 -45 c5 -42 1 -51 -62 -145 -37 -55 -69 -102 -71 -104 -2
-3 -10 4 -18 14 -12 16 -13 15 -8 -14 5 -36 -14 -69 -98 -170 -49 -58 -55 -62
-67 -45 -12 16 -13 16 -13 -7 0 -34 -87 -114 -193 -178 l-37 -23 -9 24 c-9 21
-10 20 -10 -12 -1 -34 -4 -36 -48 -49 -43 -13 -67 -22 -138 -52 -11 -5 -47
-18 -79 -29 -48 -16 -62 -18 -74 -7 -13 10 -15 9 -10 -8 4 -16 0 -21 -16 -23
-12 -1 -57 -13 -100 -27 -43 -14 -86 -25 -95 -25 -10 0 -21 -4 -26 -9 -6 -5
-39 -12 -74 -16 -59 -7 -63 -6 -49 8 8 9 31 19 51 22 20 4 57 20 82 36 25 16
52 29 60 29 7 0 26 6 42 14 15 8 46 23 68 33 22 10 42 21 45 24 3 4 25 17 50
29 24 12 56 30 70 40 88 59 151 100 156 100 7 0 72 51 134 105 96 84 160 158
235 272 69 104 185 279 285 428 45 66 207 268 261 325 23 25 129 135 235 245
222 232 278 298 343 403 58 94 93 167 122 257 l23 68 38 -44 c21 -24 45 -64
53 -89z m-511 -284 c-3 -8 -13 -17 -22 -21 -13 -5 -13 -2 3 15 21 24 26 25 19
6z m-84 -76 c0 -5 -5 -10 -11 -10 -5 0 -7 5 -4 10 3 6 8 10 11 10 2 0 4 -4 4
-10z"/>
<path d="M3548 3677 c-26 -23 -39 -43 -44 -72 -4 -22 -4 -38 -2 -35 16 16 96
140 90 140 -4 -1 -24 -15 -44 -33z"/>
</g>
</svg>
